<svg id="Layer_1" viewBox="0 0 512 512" xmlns="http://www.w3.org/2000/svg" data-name="Layer 1"><path d="m296.5 459h-81a5 5 0 0 1 -5-5v-73.5a45.5 45.5 0 0 1 91 0v73.5a5 5 0 0 1 -5 5zm-76-10h71v-68.5a35.5 35.5 0 0 0 -71 0z"/><path d="m195 353a10 10 0 1 1 10-10 10 10 0 0 1 -10 10z"/><path d="m317 353a10 10 0 1 1 10-10 10 10 0 0 1 -10 10z"/><path d="m180 229.5h-90a5 5 0 0 1 -5-5v-39a5 5 0 0 1 5-5h90a5 5 0 0 1 5 5v39a5 5 0 0 1 -5 5zm-85-10h80v-29h-80z"/><path d="m347 260h-182a5 5 0 0 1 -5-5v-30.5a5 5 0 0 1 5-5h10v-3.5a5 5 0 0 1 5-5h152a5 5 0 0 1 5 5v3.5h10a5 5 0 0 1 5 5v30.5a5 5 0 0 1 -5 5zm-177-10h172v-20.5h-10a5 5 0 0 1 -5-5v-3.5h-142v3.5a5 5 0 0 1 -5 5h-10z"/><path d="m180 141h-90a5 5 0 0 1 -5-5v-39a5 5 0 0 1 5-5h90a5 5 0 0 1 5 5v39a5 5 0 0 1 -5 5zm-85-10h80v-29h-80z"/><path d="m422 141h-90a5 5 0 0 1 -5-5v-39a5 5 0 0 1 5-5h90a5 5 0 0 1 5 5v39a5 5 0 0 1 -5 5zm-85-10h80v-29h-80z"/><path d="m422 229.5h-90a5 5 0 0 1 -5-5v-39a5 5 0 0 1 5-5h90a5 5 0 0 1 5 5v39a5 5 0 0 1 -5 5zm-85-10h80v-29h-80z"/><path d="m422 318h-90a5 5 0 0 1 -5-5v-39a5 5 0 0 1 5-5h90a5 5 0 0 1 5 5v39a5 5 0 0 1 -5 5zm-85-10h80v-29h-80z"/><path d="m180 318h-90a5 5 0 0 1 -5-5v-39a5 5 0 0 1 5-5h90a5 5 0 0 1 5 5v39a5 5 0 0 1 -5 5zm-85-10h80v-29h-80z"/><path d="m347 320h-182a5 5 0 0 1 -5-5v-2a5 5 0 0 1 5-5h10v-29h-10a5 5 0 0 1 -5-5v-19a5 5 0 0 1 5-5h182a5 5 0 0 1 5 5v19a5 5 0 0 1 -5 5h-10v29h10a5 5 0 0 1 5 5v2a5 5 0 0 1 -5 5zm-162-10h142v-36a5 5 0 0 1 5-5h10v-9h-172v9h10a5 5 0 0 1 5 5z"/><path d="m407 190.5h-60a5 5 0 0 1 -5-5v-49.5a5 5 0 0 1 5-5h60a5 5 0 0 1 5 5v49.5a5 5 0 0 1 -5 5zm-55-10h50v-39.5h-50z"/><path d="m407 279h-60a5 5 0 0 1 -5-5v-49.5a5 5 0 0 1 5-5h60a5 5 0 0 1 5 5v49.5a5 5 0 0 1 -5 5zm-55-10h50v-39.5h-50z"/><path d="m407 459h-60a5 5 0 0 1 -5-5v-141a5 5 0 0 1 5-5h60a5 5 0 0 1 5 5v141a5 5 0 0 1 -5 5zm-55-10h50v-131h-50z"/><path d="m407 102h-60a5 5 0 0 1 -5-5 35 35 0 0 1 70 0 5 5 0 0 1 -5 5zm-54.5-10h49a25 25 0 0 0 -49 0z"/><path d="m377 71a5 5 0 0 1 -5-5v-9a5 5 0 0 1 10 0v9a5 5 0 0 1 -5 5z"/><path d="m165 190.5h-60a5 5 0 0 1 -5-5v-49.5a5 5 0 0 1 5-5h60a5 5 0 0 1 5 5v49.5a5 5 0 0 1 -5 5zm-55-10h50v-39.5h-50z"/><path d="m165 279h-60a5 5 0 0 1 -5-5v-49.5a5 5 0 0 1 5-5h60a5 5 0 0 1 5 5v49.5a5 5 0 0 1 -5 5zm-55-10h50v-39.5h-50z"/><path d="m165 459h-60a5 5 0 0 1 -5-5v-141a5 5 0 0 1 5-5h60a5 5 0 0 1 5 5v141a5 5 0 0 1 -5 5zm-55-10h50v-131h-50z"/><path d="m165 102h-60a5 5 0 0 1 -5-5 35 35 0 0 1 70 0 5 5 0 0 1 -5 5zm-54.5-10h49a25 25 0 0 0 -49 0z"/><path d="m135 71a5 5 0 0 1 -5-5v-9a5 5 0 0 1 10 0v9a5 5 0 0 1 -5 5z"/><path d="m222 320h-23a5 5 0 0 1 -5-5v-27.5a16.5 16.5 0 0 1 33 0v27.5a5 5 0 0 1 -5 5zm-18-10h13v-22.5a6.5 6.5 0 0 0 -13 0z"/><path d="m266.25 320h-23a5 5 0 0 1 -5-5v-27.5a16.5 16.5 0 0 1 33 0v27.5a5 5 0 0 1 -5 5zm-18-10h13v-22.5a6.5 6.5 0 0 0 -13 0z"/><path d="m310.5 320h-23a5 5 0 0 1 -5-5v-27.5a16.5 16.5 0 0 1 33 0v27.5a5 5 0 0 1 -5 5zm-18-10h13v-22.5a6.5 6.5 0 0 0 -13 0z"/><path d="m347 459h-182a5 5 0 0 1 -5-5v-139a5 5 0 0 1 5-5h182a5 5 0 0 1 5 5v139a5 5 0 0 1 -5 5zm-177-10h172v-129h-172z"/><path d="m135 459a5 5 0 0 1 -5-5v-141a5 5 0 0 1 10 0v141a5 5 0 0 1 -5 5z"/><path d="m377 459a5 5 0 0 1 -5-5v-141a5 5 0 0 1 10 0v141a5 5 0 0 1 -5 5z"/><path d="m377 278a5 5 0 0 1 -5-5v-48a5 5 0 0 1 10 0v48a5 5 0 0 1 -5 5z"/><path d="m377 190a5 5 0 0 1 -5-5v-48a5 5 0 0 1 10 0v48a5 5 0 0 1 -5 5z"/><path d="m135 278a5 5 0 0 1 -5-5v-48a5 5 0 0 1 10 0v48a5 5 0 0 1 -5 5z"/><path d="m135 190a5 5 0 0 1 -5-5v-48a5 5 0 0 1 10 0v48a5 5 0 0 1 -5 5z"/><path d="m120 302a5 5 0 0 1 -5-5v-6a5 5 0 0 1 10 0v6a5 5 0 0 1 -5 5z"/><path d="m150 302a5 5 0 0 1 -5-5v-6a5 5 0 0 1 10 0v6a5 5 0 0 1 -5 5z"/><path d="m362 302a5 5 0 0 1 -5-5v-6a5 5 0 0 1 10 0v6a5 5 0 0 1 -5 5z"/><path d="m392 302a5 5 0 0 1 -5-5v-6a5 5 0 0 1 10 0v6a5 5 0 0 1 -5 5z"/><path d="m362 213a5 5 0 0 1 -5-5v-6a5 5 0 0 1 10 0v6a5 5 0 0 1 -5 5z"/><path d="m392 213a5 5 0 0 1 -5-5v-6a5 5 0 0 1 10 0v6a5 5 0 0 1 -5 5z"/><path d="m362 124.5a5 5 0 0 1 -5-5v-6a5 5 0 0 1 10 0v6a5 5 0 0 1 -5 5z"/><path d="m392 124.5a5 5 0 0 1 -5-5v-6a5 5 0 0 1 10 0v6a5 5 0 0 1 -5 5z"/><path d="m120 213a5 5 0 0 1 -5-5v-6a5 5 0 0 1 10 0v6a5 5 0 0 1 -5 5z"/><path d="m150 213a5 5 0 0 1 -5-5v-6a5 5 0 0 1 10 0v6a5 5 0 0 1 -5 5z"/><path d="m120 124.5a5 5 0 0 1 -5-5v-6a5 5 0 0 1 10 0v6a5 5 0 0 1 -5 5z"/><path d="m150 124.5a5 5 0 0 1 -5-5v-6a5 5 0 0 1 10 0v6a5 5 0 0 1 -5 5z"/><path d="m120 302a5 5 0 0 1 -5-5v-6a5 5 0 0 1 10 0v6a5 5 0 0 1 -5 5z"/><path d="m150 302a5 5 0 0 1 -5-5v-6a5 5 0 0 1 10 0v6a5 5 0 0 1 -5 5z"/><path d="m256 260a5 5 0 0 1 -5-5v-39a5 5 0 0 1 10 0v39a5 5 0 0 1 -5 5z"/><path d="m226 260a5 5 0 0 1 -5-5v-39a5 5 0 0 1 10 0v39a5 5 0 0 1 -5 5z"/><path d="m286 260a5 5 0 0 1 -5-5v-39a5 5 0 0 1 10 0v39a5 5 0 0 1 -5 5z"/><path d="m196 260a5 5 0 0 1 -5-5v-39a5 5 0 0 1 10 0v39a5 5 0 0 1 -5 5z"/><path d="m316 260a5 5 0 0 1 -5-5v-39a5 5 0 0 1 10 0v39a5 5 0 0 1 -5 5z"/></svg>