ISO-10303-21;
HEADER;
/* Generated by software containing ST-Developer
 * from STEP Tools, Inc. (www.steptools.com) 
 */

FILE_DESCRIPTION(
/* description */ ('CATIA V5 STEP Exchange'),
/* implementation_level */ '2;1');

FILE_NAME(
/* name */ 'Logo_Normal.step',
/* time_stamp */ '2026-04-30T13:36:44+05:30',
/* author */ (''),
/* organization */ (''),
/* preprocessor_version */ 'ST-DEVELOPER v20.1',
/* originating_system */ 'Autodesk Translation Framework v14.24.0.0',
/* authorisation */ '');

FILE_SCHEMA (('AUTOMOTIVE_DESIGN { 1 0 10303 214 3 1 1 }'));
ENDSEC;

DATA;
#10=MECHANICAL_DESIGN_GEOMETRIC_PRESENTATION_REPRESENTATION('',(#17,#18,
#19,#20,#21),#1065);
#11=ITEM_DEFINED_TRANSFORMATION($,$,#673,#712);
#12=(
REPRESENTATION_RELATIONSHIP($,$,#1076,#1075)
REPRESENTATION_RELATIONSHIP_WITH_TRANSFORMATION(#11)
SHAPE_REPRESENTATION_RELATIONSHIP()
);
#13=CONTEXT_DEPENDENT_SHAPE_REPRESENTATION(#12,#1074);
#14=NEXT_ASSEMBLY_USAGE_OCCURRENCE('Latrics_logo_Final v1:1',
'Latrics_logo_Final v1:1','Latrics_logo_Final v1:1',#1078,#1079,
'Latrics_logo_Final v1:1');
#15=SHAPE_REPRESENTATION_RELATIONSHIP('SRR','None',#1076,#16);
#16=ADVANCED_BREP_SHAPE_REPRESENTATION('',(#22,#23,#24,#25,#26),#1064);
#17=STYLED_ITEM('',(#1090),#22);
#18=STYLED_ITEM('',(#1090),#23);
#19=STYLED_ITEM('',(#1090),#24);
#20=STYLED_ITEM('',(#1090),#25);
#21=STYLED_ITEM('',(#1090),#26);
#22=MANIFOLD_SOLID_BREP('Body1',#655);
#23=MANIFOLD_SOLID_BREP('Body2',#656);
#24=MANIFOLD_SOLID_BREP('Body3',#657);
#25=MANIFOLD_SOLID_BREP('Body4',#658);
#26=MANIFOLD_SOLID_BREP('Body5',#659);
#27=FACE_OUTER_BOUND('',#65,.T.);
#28=FACE_OUTER_BOUND('',#66,.T.);
#29=FACE_OUTER_BOUND('',#67,.T.);
#30=FACE_OUTER_BOUND('',#68,.T.);
#31=FACE_OUTER_BOUND('',#69,.T.);
#32=FACE_OUTER_BOUND('',#70,.T.);
#33=FACE_OUTER_BOUND('',#71,.T.);
#34=FACE_OUTER_BOUND('',#72,.T.);
#35=FACE_OUTER_BOUND('',#73,.T.);
#36=FACE_OUTER_BOUND('',#74,.T.);
#37=FACE_OUTER_BOUND('',#75,.T.);
#38=FACE_OUTER_BOUND('',#76,.T.);
#39=FACE_OUTER_BOUND('',#77,.T.);
#40=FACE_OUTER_BOUND('',#78,.T.);
#41=FACE_OUTER_BOUND('',#79,.T.);
#42=FACE_OUTER_BOUND('',#80,.T.);
#43=FACE_OUTER_BOUND('',#81,.T.);
#44=FACE_OUTER_BOUND('',#82,.T.);
#45=FACE_OUTER_BOUND('',#83,.T.);
#46=FACE_OUTER_BOUND('',#84,.T.);
#47=FACE_OUTER_BOUND('',#85,.T.);
#48=FACE_OUTER_BOUND('',#86,.T.);
#49=FACE_OUTER_BOUND('',#87,.T.);
#50=FACE_OUTER_BOUND('',#88,.T.);
#51=FACE_OUTER_BOUND('',#89,.T.);
#52=FACE_OUTER_BOUND('',#90,.T.);
#53=FACE_OUTER_BOUND('',#91,.T.);
#54=FACE_OUTER_BOUND('',#92,.T.);
#55=FACE_OUTER_BOUND('',#93,.T.);
#56=FACE_OUTER_BOUND('',#94,.T.);
#57=FACE_OUTER_BOUND('',#95,.T.);
#58=FACE_OUTER_BOUND('',#96,.T.);
#59=FACE_OUTER_BOUND('',#97,.T.);
#60=FACE_OUTER_BOUND('',#98,.T.);
#61=FACE_OUTER_BOUND('',#99,.T.);
#62=FACE_OUTER_BOUND('',#100,.T.);
#63=FACE_OUTER_BOUND('',#101,.T.);
#64=FACE_OUTER_BOUND('',#102,.T.);
#65=EDGE_LOOP('',(#411,#412,#413,#414));
#66=EDGE_LOOP('',(#415,#416,#417,#418));
#67=EDGE_LOOP('',(#419,#420,#421,#422));
#68=EDGE_LOOP('',(#423,#424,#425,#426));
#69=EDGE_LOOP('',(#427,#428,#429,#430));
#70=EDGE_LOOP('',(#431,#432,#433,#434));
#71=EDGE_LOOP('',(#435,#436,#437,#438,#439,#440));
#72=EDGE_LOOP('',(#441,#442,#443,#444));
#73=EDGE_LOOP('',(#445,#446,#447,#448));
#74=EDGE_LOOP('',(#449,#450,#451,#452));
#75=EDGE_LOOP('',(#453,#454,#455,#456));
#76=EDGE_LOOP('',(#457,#458,#459,#460));
#77=EDGE_LOOP('',(#461,#462,#463,#464));
#78=EDGE_LOOP('',(#465,#466,#467,#468,#469,#470));
#79=EDGE_LOOP('',(#471,#472,#473,#474,#475,#476));
#80=EDGE_LOOP('',(#477,#478,#479,#480));
#81=EDGE_LOOP('',(#481,#482,#483,#484));
#82=EDGE_LOOP('',(#485,#486,#487,#488));
#83=EDGE_LOOP('',(#489,#490,#491,#492));
#84=EDGE_LOOP('',(#493,#494,#495,#496));
#85=EDGE_LOOP('',(#497,#498,#499,#500));
#86=EDGE_LOOP('',(#501,#502,#503,#504,#505,#506));
#87=EDGE_LOOP('',(#507,#508,#509,#510,#511,#512));
#88=EDGE_LOOP('',(#513,#514,#515,#516));
#89=EDGE_LOOP('',(#517,#518,#519,#520));
#90=EDGE_LOOP('',(#521,#522,#523,#524));
#91=EDGE_LOOP('',(#525,#526,#527,#528));
#92=EDGE_LOOP('',(#529,#530,#531,#532));
#93=EDGE_LOOP('',(#533,#534,#535,#536));
#94=EDGE_LOOP('',(#537,#538,#539,#540,#541,#542));
#95=EDGE_LOOP('',(#543,#544,#545,#546,#547,#548));
#96=EDGE_LOOP('',(#549,#550,#551,#552));
#97=EDGE_LOOP('',(#553,#554,#555,#556));
#98=EDGE_LOOP('',(#557,#558,#559,#560));
#99=EDGE_LOOP('',(#561,#562,#563,#564));
#100=EDGE_LOOP('',(#565,#566,#567,#568));
#101=EDGE_LOOP('',(#569,#570,#571,#572));
#102=EDGE_LOOP('',(#573,#574,#575,#576,#577,#578));
#103=LINE('',#884,#187);
#104=LINE('',#886,#188);
#105=LINE('',#888,#189);
#106=LINE('',#889,#190);
#107=LINE('',#892,#191);
#108=LINE('',#894,#192);
#109=LINE('',#895,#193);
#110=LINE('',#898,#194);
#111=LINE('',#900,#195);
#112=LINE('',#901,#196);
#113=LINE('',#903,#197);
#114=LINE('',#904,#198);
#115=LINE('',#910,#199);
#116=LINE('',#912,#200);
#117=LINE('',#914,#201);
#118=LINE('',#916,#202);
#119=LINE('',#918,#203);
#120=LINE('',#919,#204);
#121=LINE('',#922,#205);
#122=LINE('',#924,#206);
#123=LINE('',#925,#207);
#124=LINE('',#928,#208);
#125=LINE('',#929,#209);
#126=LINE('',#932,#210);
#127=LINE('',#933,#211);
#128=LINE('',#936,#212);
#129=LINE('',#937,#213);
#130=LINE('',#940,#214);
#131=LINE('',#941,#215);
#132=LINE('',#943,#216);
#133=LINE('',#948,#217);
#134=LINE('',#950,#218);
#135=LINE('',#952,#219);
#136=LINE('',#954,#220);
#137=LINE('',#956,#221);
#138=LINE('',#957,#222);
#139=LINE('',#960,#223);
#140=LINE('',#962,#224);
#141=LINE('',#963,#225);
#142=LINE('',#966,#226);
#143=LINE('',#967,#227);
#144=LINE('',#970,#228);
#145=LINE('',#971,#229);
#146=LINE('',#974,#230);
#147=LINE('',#975,#231);
#148=LINE('',#978,#232);
#149=LINE('',#979,#233);
#150=LINE('',#981,#234);
#151=LINE('',#986,#235);
#152=LINE('',#988,#236);
#153=LINE('',#990,#237);
#154=LINE('',#992,#238);
#155=LINE('',#994,#239);
#156=LINE('',#995,#240);
#157=LINE('',#998,#241);
#158=LINE('',#1000,#242);
#159=LINE('',#1001,#243);
#160=LINE('',#1004,#244);
#161=LINE('',#1005,#245);
#162=LINE('',#1008,#246);
#163=LINE('',#1009,#247);
#164=LINE('',#1012,#248);
#165=LINE('',#1013,#249);
#166=LINE('',#1016,#250);
#167=LINE('',#1017,#251);
#168=LINE('',#1019,#252);
#169=LINE('',#1024,#253);
#170=LINE('',#1026,#254);
#171=LINE('',#1028,#255);
#172=LINE('',#1030,#256);
#173=LINE('',#1032,#257);
#174=LINE('',#1033,#258);
#175=LINE('',#1036,#259);
#176=LINE('',#1038,#260);
#177=LINE('',#1039,#261);
#178=LINE('',#1042,#262);
#179=LINE('',#1043,#263);
#180=LINE('',#1046,#264);
#181=LINE('',#1047,#265);
#182=LINE('',#1050,#266);
#183=LINE('',#1051,#267);
#184=LINE('',#1054,#268);
#185=LINE('',#1055,#269);
#186=LINE('',#1057,#270);
#187=VECTOR('',#719,10.);
#188=VECTOR('',#720,10.);
#189=VECTOR('',#721,10.);
#190=VECTOR('',#722,10.);
#191=VECTOR('',#725,10.);
#192=VECTOR('',#726,10.);
#193=VECTOR('',#727,10.);
#194=VECTOR('',#730,10.);
#195=VECTOR('',#731,10.);
#196=VECTOR('',#732,10.);
#197=VECTOR('',#735,10.);
#198=VECTOR('',#736,10.);
#199=VECTOR('',#743,10.);
#200=VECTOR('',#744,10.);
#201=VECTOR('',#745,10.);
#202=VECTOR('',#746,10.);
#203=VECTOR('',#747,10.);
#204=VECTOR('',#748,10.);
#205=VECTOR('',#751,10.);
#206=VECTOR('',#752,10.);
#207=VECTOR('',#753,10.);
#208=VECTOR('',#756,10.);
#209=VECTOR('',#757,10.);
#210=VECTOR('',#760,10.);
#211=VECTOR('',#761,10.);
#212=VECTOR('',#764,10.);
#213=VECTOR('',#765,10.);
#214=VECTOR('',#768,10.);
#215=VECTOR('',#769,10.);
#216=VECTOR('',#772,10.);
#217=VECTOR('',#777,10.);
#218=VECTOR('',#778,10.);
#219=VECTOR('',#779,10.);
#220=VECTOR('',#780,10.);
#221=VECTOR('',#781,10.);
#222=VECTOR('',#782,10.);
#223=VECTOR('',#785,10.);
#224=VECTOR('',#786,10.);
#225=VECTOR('',#787,10.);
#226=VECTOR('',#790,10.);
#227=VECTOR('',#791,10.);
#228=VECTOR('',#794,10.);
#229=VECTOR('',#795,10.);
#230=VECTOR('',#798,10.);
#231=VECTOR('',#799,10.);
#232=VECTOR('',#802,10.);
#233=VECTOR('',#803,10.);
#234=VECTOR('',#806,10.);
#235=VECTOR('',#811,10.);
#236=VECTOR('',#812,10.);
#237=VECTOR('',#813,10.);
#238=VECTOR('',#814,10.);
#239=VECTOR('',#815,10.);
#240=VECTOR('',#816,10.);
#241=VECTOR('',#819,10.);
#242=VECTOR('',#820,10.);
#243=VECTOR('',#821,10.);
#244=VECTOR('',#824,10.);
#245=VECTOR('',#825,10.);
#246=VECTOR('',#828,10.);
#247=VECTOR('',#829,10.);
#248=VECTOR('',#832,10.);
#249=VECTOR('',#833,10.);
#250=VECTOR('',#836,10.);
#251=VECTOR('',#837,10.);
#252=VECTOR('',#840,10.);
#253=VECTOR('',#845,10.);
#254=VECTOR('',#846,10.);
#255=VECTOR('',#847,10.);
#256=VECTOR('',#848,10.);
#257=VECTOR('',#849,10.);
#258=VECTOR('',#850,10.);
#259=VECTOR('',#853,10.);
#260=VECTOR('',#854,10.);
#261=VECTOR('',#855,10.);
#262=VECTOR('',#858,10.);
#263=VECTOR('',#859,10.);
#264=VECTOR('',#862,10.);
#265=VECTOR('',#863,10.);
#266=VECTOR('',#866,10.);
#267=VECTOR('',#867,10.);
#268=VECTOR('',#870,10.);
#269=VECTOR('',#871,10.);
#270=VECTOR('',#874,10.);
#271=VERTEX_POINT('',#882);
#272=VERTEX_POINT('',#883);
#273=VERTEX_POINT('',#885);
#274=VERTEX_POINT('',#887);
#275=VERTEX_POINT('',#891);
#276=VERTEX_POINT('',#893);
#277=VERTEX_POINT('',#897);
#278=VERTEX_POINT('',#899);
#279=VERTEX_POINT('',#908);
#280=VERTEX_POINT('',#909);
#281=VERTEX_POINT('',#911);
#282=VERTEX_POINT('',#913);
#283=VERTEX_POINT('',#915);
#284=VERTEX_POINT('',#917);
#285=VERTEX_POINT('',#921);
#286=VERTEX_POINT('',#923);
#287=VERTEX_POINT('',#927);
#288=VERTEX_POINT('',#931);
#289=VERTEX_POINT('',#935);
#290=VERTEX_POINT('',#939);
#291=VERTEX_POINT('',#946);
#292=VERTEX_POINT('',#947);
#293=VERTEX_POINT('',#949);
#294=VERTEX_POINT('',#951);
#295=VERTEX_POINT('',#953);
#296=VERTEX_POINT('',#955);
#297=VERTEX_POINT('',#959);
#298=VERTEX_POINT('',#961);
#299=VERTEX_POINT('',#965);
#300=VERTEX_POINT('',#969);
#301=VERTEX_POINT('',#973);
#302=VERTEX_POINT('',#977);
#303=VERTEX_POINT('',#984);
#304=VERTEX_POINT('',#985);
#305=VERTEX_POINT('',#987);
#306=VERTEX_POINT('',#989);
#307=VERTEX_POINT('',#991);
#308=VERTEX_POINT('',#993);
#309=VERTEX_POINT('',#997);
#310=VERTEX_POINT('',#999);
#311=VERTEX_POINT('',#1003);
#312=VERTEX_POINT('',#1007);
#313=VERTEX_POINT('',#1011);
#314=VERTEX_POINT('',#1015);
#315=VERTEX_POINT('',#1022);
#316=VERTEX_POINT('',#1023);
#317=VERTEX_POINT('',#1025);
#318=VERTEX_POINT('',#1027);
#319=VERTEX_POINT('',#1029);
#320=VERTEX_POINT('',#1031);
#321=VERTEX_POINT('',#1035);
#322=VERTEX_POINT('',#1037);
#323=VERTEX_POINT('',#1041);
#324=VERTEX_POINT('',#1045);
#325=VERTEX_POINT('',#1049);
#326=VERTEX_POINT('',#1053);
#327=EDGE_CURVE('',#271,#272,#103,.T.);
#328=EDGE_CURVE('',#273,#272,#104,.T.);
#329=EDGE_CURVE('',#273,#274,#105,.T.);
#330=EDGE_CURVE('',#271,#274,#106,.T.);
#331=EDGE_CURVE('',#275,#273,#107,.T.);
#332=EDGE_CURVE('',#275,#276,#108,.T.);
#333=EDGE_CURVE('',#274,#276,#109,.T.);
#334=EDGE_CURVE('',#277,#275,#110,.T.);
#335=EDGE_CURVE('',#277,#278,#111,.T.);
#336=EDGE_CURVE('',#276,#278,#112,.T.);
#337=EDGE_CURVE('',#272,#277,#113,.T.);
#338=EDGE_CURVE('',#278,#271,#114,.T.);
#339=EDGE_CURVE('',#279,#280,#115,.T.);
#340=EDGE_CURVE('',#280,#281,#116,.T.);
#341=EDGE_CURVE('',#281,#282,#117,.T.);
#342=EDGE_CURVE('',#282,#283,#118,.T.);
#343=EDGE_CURVE('',#283,#284,#119,.T.);
#344=EDGE_CURVE('',#284,#279,#120,.T.);
#345=EDGE_CURVE('',#284,#285,#121,.T.);
#346=EDGE_CURVE('',#286,#285,#122,.T.);
#347=EDGE_CURVE('',#286,#279,#123,.T.);
#348=EDGE_CURVE('',#287,#286,#124,.T.);
#349=EDGE_CURVE('',#287,#280,#125,.T.);
#350=EDGE_CURVE('',#288,#287,#126,.T.);
#351=EDGE_CURVE('',#288,#281,#127,.T.);
#352=EDGE_CURVE('',#289,#288,#128,.T.);
#353=EDGE_CURVE('',#289,#282,#129,.T.);
#354=EDGE_CURVE('',#290,#289,#130,.T.);
#355=EDGE_CURVE('',#290,#283,#131,.T.);
#356=EDGE_CURVE('',#285,#290,#132,.T.);
#357=EDGE_CURVE('',#291,#292,#133,.T.);
#358=EDGE_CURVE('',#292,#293,#134,.T.);
#359=EDGE_CURVE('',#293,#294,#135,.T.);
#360=EDGE_CURVE('',#294,#295,#136,.T.);
#361=EDGE_CURVE('',#295,#296,#137,.T.);
#362=EDGE_CURVE('',#296,#291,#138,.T.);
#363=EDGE_CURVE('',#292,#297,#139,.T.);
#364=EDGE_CURVE('',#298,#291,#140,.T.);
#365=EDGE_CURVE('',#297,#298,#141,.T.);
#366=EDGE_CURVE('',#293,#299,#142,.T.);
#367=EDGE_CURVE('',#299,#297,#143,.T.);
#368=EDGE_CURVE('',#294,#300,#144,.T.);
#369=EDGE_CURVE('',#300,#299,#145,.T.);
#370=EDGE_CURVE('',#295,#301,#146,.T.);
#371=EDGE_CURVE('',#301,#300,#147,.T.);
#372=EDGE_CURVE('',#296,#302,#148,.T.);
#373=EDGE_CURVE('',#302,#301,#149,.T.);
#374=EDGE_CURVE('',#298,#302,#150,.T.);
#375=EDGE_CURVE('',#303,#304,#151,.T.);
#376=EDGE_CURVE('',#304,#305,#152,.T.);
#377=EDGE_CURVE('',#305,#306,#153,.T.);
#378=EDGE_CURVE('',#306,#307,#154,.T.);
#379=EDGE_CURVE('',#307,#308,#155,.T.);
#380=EDGE_CURVE('',#308,#303,#156,.T.);
#381=EDGE_CURVE('',#308,#309,#157,.T.);
#382=EDGE_CURVE('',#310,#309,#158,.T.);
#383=EDGE_CURVE('',#310,#303,#159,.T.);
#384=EDGE_CURVE('',#311,#310,#160,.T.);
#385=EDGE_CURVE('',#311,#304,#161,.T.);
#386=EDGE_CURVE('',#312,#311,#162,.T.);
#387=EDGE_CURVE('',#312,#305,#163,.T.);
#388=EDGE_CURVE('',#313,#312,#164,.T.);
#389=EDGE_CURVE('',#313,#306,#165,.T.);
#390=EDGE_CURVE('',#314,#313,#166,.T.);
#391=EDGE_CURVE('',#314,#307,#167,.T.);
#392=EDGE_CURVE('',#309,#314,#168,.T.);
#393=EDGE_CURVE('',#315,#316,#169,.T.);
#394=EDGE_CURVE('',#316,#317,#170,.T.);
#395=EDGE_CURVE('',#317,#318,#171,.T.);
#396=EDGE_CURVE('',#318,#319,#172,.T.);
#397=EDGE_CURVE('',#319,#320,#173,.T.);
#398=EDGE_CURVE('',#320,#315,#174,.T.);
#399=EDGE_CURVE('',#316,#321,#175,.T.);
#400=EDGE_CURVE('',#322,#315,#176,.T.);
#401=EDGE_CURVE('',#321,#322,#177,.T.);
#402=EDGE_CURVE('',#317,#323,#178,.T.);
#403=EDGE_CURVE('',#323,#321,#179,.T.);
#404=EDGE_CURVE('',#318,#324,#180,.T.);
#405=EDGE_CURVE('',#324,#323,#181,.T.);
#406=EDGE_CURVE('',#319,#325,#182,.T.);
#407=EDGE_CURVE('',#325,#324,#183,.T.);
#408=EDGE_CURVE('',#320,#326,#184,.T.);
#409=EDGE_CURVE('',#326,#325,#185,.T.);
#410=EDGE_CURVE('',#322,#326,#186,.T.);
#411=ORIENTED_EDGE('',*,*,#327,.T.);
#412=ORIENTED_EDGE('',*,*,#328,.F.);
#413=ORIENTED_EDGE('',*,*,#329,.T.);
#414=ORIENTED_EDGE('',*,*,#330,.F.);
#415=ORIENTED_EDGE('',*,*,#329,.F.);
#416=ORIENTED_EDGE('',*,*,#331,.F.);
#417=ORIENTED_EDGE('',*,*,#332,.T.);
#418=ORIENTED_EDGE('',*,*,#333,.F.);
#419=ORIENTED_EDGE('',*,*,#332,.F.);
#420=ORIENTED_EDGE('',*,*,#334,.F.);
#421=ORIENTED_EDGE('',*,*,#335,.T.);
#422=ORIENTED_EDGE('',*,*,#336,.F.);
#423=ORIENTED_EDGE('',*,*,#335,.F.);
#424=ORIENTED_EDGE('',*,*,#337,.F.);
#425=ORIENTED_EDGE('',*,*,#327,.F.);
#426=ORIENTED_EDGE('',*,*,#338,.F.);
#427=ORIENTED_EDGE('',*,*,#333,.T.);
#428=ORIENTED_EDGE('',*,*,#336,.T.);
#429=ORIENTED_EDGE('',*,*,#338,.T.);
#430=ORIENTED_EDGE('',*,*,#330,.T.);
#431=ORIENTED_EDGE('',*,*,#337,.T.);
#432=ORIENTED_EDGE('',*,*,#334,.T.);
#433=ORIENTED_EDGE('',*,*,#331,.T.);
#434=ORIENTED_EDGE('',*,*,#328,.T.);
#435=ORIENTED_EDGE('',*,*,#339,.T.);
#436=ORIENTED_EDGE('',*,*,#340,.T.);
#437=ORIENTED_EDGE('',*,*,#341,.T.);
#438=ORIENTED_EDGE('',*,*,#342,.T.);
#439=ORIENTED_EDGE('',*,*,#343,.T.);
#440=ORIENTED_EDGE('',*,*,#344,.T.);
#441=ORIENTED_EDGE('',*,*,#345,.T.);
#442=ORIENTED_EDGE('',*,*,#346,.F.);
#443=ORIENTED_EDGE('',*,*,#347,.T.);
#444=ORIENTED_EDGE('',*,*,#344,.F.);
#445=ORIENTED_EDGE('',*,*,#347,.F.);
#446=ORIENTED_EDGE('',*,*,#348,.F.);
#447=ORIENTED_EDGE('',*,*,#349,.T.);
#448=ORIENTED_EDGE('',*,*,#339,.F.);
#449=ORIENTED_EDGE('',*,*,#349,.F.);
#450=ORIENTED_EDGE('',*,*,#350,.F.);
#451=ORIENTED_EDGE('',*,*,#351,.T.);
#452=ORIENTED_EDGE('',*,*,#340,.F.);
#453=ORIENTED_EDGE('',*,*,#351,.F.);
#454=ORIENTED_EDGE('',*,*,#352,.F.);
#455=ORIENTED_EDGE('',*,*,#353,.T.);
#456=ORIENTED_EDGE('',*,*,#341,.F.);
#457=ORIENTED_EDGE('',*,*,#353,.F.);
#458=ORIENTED_EDGE('',*,*,#354,.F.);
#459=ORIENTED_EDGE('',*,*,#355,.T.);
#460=ORIENTED_EDGE('',*,*,#342,.F.);
#461=ORIENTED_EDGE('',*,*,#355,.F.);
#462=ORIENTED_EDGE('',*,*,#356,.F.);
#463=ORIENTED_EDGE('',*,*,#345,.F.);
#464=ORIENTED_EDGE('',*,*,#343,.F.);
#465=ORIENTED_EDGE('',*,*,#356,.T.);
#466=ORIENTED_EDGE('',*,*,#354,.T.);
#467=ORIENTED_EDGE('',*,*,#352,.T.);
#468=ORIENTED_EDGE('',*,*,#350,.T.);
#469=ORIENTED_EDGE('',*,*,#348,.T.);
#470=ORIENTED_EDGE('',*,*,#346,.T.);
#471=ORIENTED_EDGE('',*,*,#357,.T.);
#472=ORIENTED_EDGE('',*,*,#358,.T.);
#473=ORIENTED_EDGE('',*,*,#359,.T.);
#474=ORIENTED_EDGE('',*,*,#360,.T.);
#475=ORIENTED_EDGE('',*,*,#361,.T.);
#476=ORIENTED_EDGE('',*,*,#362,.T.);
#477=ORIENTED_EDGE('',*,*,#363,.F.);
#478=ORIENTED_EDGE('',*,*,#357,.F.);
#479=ORIENTED_EDGE('',*,*,#364,.F.);
#480=ORIENTED_EDGE('',*,*,#365,.F.);
#481=ORIENTED_EDGE('',*,*,#366,.F.);
#482=ORIENTED_EDGE('',*,*,#358,.F.);
#483=ORIENTED_EDGE('',*,*,#363,.T.);
#484=ORIENTED_EDGE('',*,*,#367,.F.);
#485=ORIENTED_EDGE('',*,*,#368,.F.);
#486=ORIENTED_EDGE('',*,*,#359,.F.);
#487=ORIENTED_EDGE('',*,*,#366,.T.);
#488=ORIENTED_EDGE('',*,*,#369,.F.);
#489=ORIENTED_EDGE('',*,*,#370,.F.);
#490=ORIENTED_EDGE('',*,*,#360,.F.);
#491=ORIENTED_EDGE('',*,*,#368,.T.);
#492=ORIENTED_EDGE('',*,*,#371,.F.);
#493=ORIENTED_EDGE('',*,*,#372,.F.);
#494=ORIENTED_EDGE('',*,*,#361,.F.);
#495=ORIENTED_EDGE('',*,*,#370,.T.);
#496=ORIENTED_EDGE('',*,*,#373,.F.);
#497=ORIENTED_EDGE('',*,*,#364,.T.);
#498=ORIENTED_EDGE('',*,*,#362,.F.);
#499=ORIENTED_EDGE('',*,*,#372,.T.);
#500=ORIENTED_EDGE('',*,*,#374,.F.);
#501=ORIENTED_EDGE('',*,*,#373,.T.);
#502=ORIENTED_EDGE('',*,*,#371,.T.);
#503=ORIENTED_EDGE('',*,*,#369,.T.);
#504=ORIENTED_EDGE('',*,*,#367,.T.);
#505=ORIENTED_EDGE('',*,*,#365,.T.);
#506=ORIENTED_EDGE('',*,*,#374,.T.);
#507=ORIENTED_EDGE('',*,*,#375,.T.);
#508=ORIENTED_EDGE('',*,*,#376,.T.);
#509=ORIENTED_EDGE('',*,*,#377,.T.);
#510=ORIENTED_EDGE('',*,*,#378,.T.);
#511=ORIENTED_EDGE('',*,*,#379,.T.);
#512=ORIENTED_EDGE('',*,*,#380,.T.);
#513=ORIENTED_EDGE('',*,*,#381,.T.);
#514=ORIENTED_EDGE('',*,*,#382,.F.);
#515=ORIENTED_EDGE('',*,*,#383,.T.);
#516=ORIENTED_EDGE('',*,*,#380,.F.);
#517=ORIENTED_EDGE('',*,*,#383,.F.);
#518=ORIENTED_EDGE('',*,*,#384,.F.);
#519=ORIENTED_EDGE('',*,*,#385,.T.);
#520=ORIENTED_EDGE('',*,*,#375,.F.);
#521=ORIENTED_EDGE('',*,*,#385,.F.);
#522=ORIENTED_EDGE('',*,*,#386,.F.);
#523=ORIENTED_EDGE('',*,*,#387,.T.);
#524=ORIENTED_EDGE('',*,*,#376,.F.);
#525=ORIENTED_EDGE('',*,*,#387,.F.);
#526=ORIENTED_EDGE('',*,*,#388,.F.);
#527=ORIENTED_EDGE('',*,*,#389,.T.);
#528=ORIENTED_EDGE('',*,*,#377,.F.);
#529=ORIENTED_EDGE('',*,*,#389,.F.);
#530=ORIENTED_EDGE('',*,*,#390,.F.);
#531=ORIENTED_EDGE('',*,*,#391,.T.);
#532=ORIENTED_EDGE('',*,*,#378,.F.);
#533=ORIENTED_EDGE('',*,*,#391,.F.);
#534=ORIENTED_EDGE('',*,*,#392,.F.);
#535=ORIENTED_EDGE('',*,*,#381,.F.);
#536=ORIENTED_EDGE('',*,*,#379,.F.);
#537=ORIENTED_EDGE('',*,*,#392,.T.);
#538=ORIENTED_EDGE('',*,*,#390,.T.);
#539=ORIENTED_EDGE('',*,*,#388,.T.);
#540=ORIENTED_EDGE('',*,*,#386,.T.);
#541=ORIENTED_EDGE('',*,*,#384,.T.);
#542=ORIENTED_EDGE('',*,*,#382,.T.);
#543=ORIENTED_EDGE('',*,*,#393,.T.);
#544=ORIENTED_EDGE('',*,*,#394,.T.);
#545=ORIENTED_EDGE('',*,*,#395,.T.);
#546=ORIENTED_EDGE('',*,*,#396,.T.);
#547=ORIENTED_EDGE('',*,*,#397,.T.);
#548=ORIENTED_EDGE('',*,*,#398,.T.);
#549=ORIENTED_EDGE('',*,*,#399,.F.);
#550=ORIENTED_EDGE('',*,*,#393,.F.);
#551=ORIENTED_EDGE('',*,*,#400,.F.);
#552=ORIENTED_EDGE('',*,*,#401,.F.);
#553=ORIENTED_EDGE('',*,*,#402,.F.);
#554=ORIENTED_EDGE('',*,*,#394,.F.);
#555=ORIENTED_EDGE('',*,*,#399,.T.);
#556=ORIENTED_EDGE('',*,*,#403,.F.);
#557=ORIENTED_EDGE('',*,*,#404,.F.);
#558=ORIENTED_EDGE('',*,*,#395,.F.);
#559=ORIENTED_EDGE('',*,*,#402,.T.);
#560=ORIENTED_EDGE('',*,*,#405,.F.);
#561=ORIENTED_EDGE('',*,*,#406,.F.);
#562=ORIENTED_EDGE('',*,*,#396,.F.);
#563=ORIENTED_EDGE('',*,*,#404,.T.);
#564=ORIENTED_EDGE('',*,*,#407,.F.);
#565=ORIENTED_EDGE('',*,*,#408,.F.);
#566=ORIENTED_EDGE('',*,*,#397,.F.);
#567=ORIENTED_EDGE('',*,*,#406,.T.);
#568=ORIENTED_EDGE('',*,*,#409,.F.);
#569=ORIENTED_EDGE('',*,*,#400,.T.);
#570=ORIENTED_EDGE('',*,*,#398,.F.);
#571=ORIENTED_EDGE('',*,*,#408,.T.);
#572=ORIENTED_EDGE('',*,*,#410,.F.);
#573=ORIENTED_EDGE('',*,*,#409,.T.);
#574=ORIENTED_EDGE('',*,*,#407,.T.);
#575=ORIENTED_EDGE('',*,*,#405,.T.);
#576=ORIENTED_EDGE('',*,*,#403,.T.);
#577=ORIENTED_EDGE('',*,*,#401,.T.);
#578=ORIENTED_EDGE('',*,*,#410,.T.);
#579=PLANE('',#674);
#580=PLANE('',#675);
#581=PLANE('',#676);
#582=PLANE('',#677);
#583=PLANE('',#678);
#584=PLANE('',#679);
#585=PLANE('',#680);
#586=PLANE('',#681);
#587=PLANE('',#682);
#588=PLANE('',#683);
#589=PLANE('',#684);
#590=PLANE('',#685);
#591=PLANE('',#686);
#592=PLANE('',#687);
#593=PLANE('',#688);
#594=PLANE('',#689);
#595=PLANE('',#690);
#596=PLANE('',#691);
#597=PLANE('',#692);
#598=PLANE('',#693);
#599=PLANE('',#694);
#600=PLANE('',#695);
#601=PLANE('',#696);
#602=PLANE('',#697);
#603=PLANE('',#698);
#604=PLANE('',#699);
#605=PLANE('',#700);
#606=PLANE('',#701);
#607=PLANE('',#702);
#608=PLANE('',#703);
#609=PLANE('',#704);
#610=PLANE('',#705);
#611=PLANE('',#706);
#612=PLANE('',#707);
#613=PLANE('',#708);
#614=PLANE('',#709);
#615=PLANE('',#710);
#616=PLANE('',#711);
#617=ADVANCED_FACE('',(#27),#579,.T.);
#618=ADVANCED_FACE('',(#28),#580,.T.);
#619=ADVANCED_FACE('',(#29),#581,.T.);
#620=ADVANCED_FACE('',(#30),#582,.T.);
#621=ADVANCED_FACE('',(#31),#583,.T.);
#622=ADVANCED_FACE('',(#32),#584,.T.);
#623=ADVANCED_FACE('',(#33),#585,.T.);
#624=ADVANCED_FACE('',(#34),#586,.T.);
#625=ADVANCED_FACE('',(#35),#587,.T.);
#626=ADVANCED_FACE('',(#36),#588,.T.);
#627=ADVANCED_FACE('',(#37),#589,.T.);
#628=ADVANCED_FACE('',(#38),#590,.T.);
#629=ADVANCED_FACE('',(#39),#591,.T.);
#630=ADVANCED_FACE('',(#40),#592,.T.);
#631=ADVANCED_FACE('',(#41),#593,.T.);
#632=ADVANCED_FACE('',(#42),#594,.T.);
#633=ADVANCED_FACE('',(#43),#595,.T.);
#634=ADVANCED_FACE('',(#44),#596,.T.);
#635=ADVANCED_FACE('',(#45),#597,.T.);
#636=ADVANCED_FACE('',(#46),#598,.T.);
#637=ADVANCED_FACE('',(#47),#599,.T.);
#638=ADVANCED_FACE('',(#48),#600,.T.);
#639=ADVANCED_FACE('',(#49),#601,.T.);
#640=ADVANCED_FACE('',(#50),#602,.T.);
#641=ADVANCED_FACE('',(#51),#603,.T.);
#642=ADVANCED_FACE('',(#52),#604,.T.);
#643=ADVANCED_FACE('',(#53),#605,.T.);
#644=ADVANCED_FACE('',(#54),#606,.T.);
#645=ADVANCED_FACE('',(#55),#607,.T.);
#646=ADVANCED_FACE('',(#56),#608,.T.);
#647=ADVANCED_FACE('',(#57),#609,.T.);
#648=ADVANCED_FACE('',(#58),#610,.T.);
#649=ADVANCED_FACE('',(#59),#611,.T.);
#650=ADVANCED_FACE('',(#60),#612,.T.);
#651=ADVANCED_FACE('',(#61),#613,.T.);
#652=ADVANCED_FACE('',(#62),#614,.T.);
#653=ADVANCED_FACE('',(#63),#615,.T.);
#654=ADVANCED_FACE('',(#64),#616,.T.);
#655=CLOSED_SHELL('',(#617,#618,#619,#620,#621,#622));
#656=CLOSED_SHELL('',(#623,#624,#625,#626,#627,#628,#629,#630));
#657=CLOSED_SHELL('',(#631,#632,#633,#634,#635,#636,#637,#638));
#658=CLOSED_SHELL('',(#639,#640,#641,#642,#643,#644,#645,#646));
#659=CLOSED_SHELL('',(#647,#648,#649,#650,#651,#652,#653,#654));
#660=DERIVED_UNIT_ELEMENT(#662,1.);
#661=DERIVED_UNIT_ELEMENT(#1067,-3.);
#662=(
MASS_UNIT()
NAMED_UNIT(*)
SI_UNIT(.KILO.,.GRAM.)
);
#663=DERIVED_UNIT((#660,#661));
#664=MEASURE_REPRESENTATION_ITEM('density measure',
POSITIVE_RATIO_MEASURE(7850.),#663);
#665=PROPERTY_DEFINITION_REPRESENTATION(#670,#667);
#666=PROPERTY_DEFINITION_REPRESENTATION(#671,#668);
#667=REPRESENTATION('material name',(#669),#1064);
#668=REPRESENTATION('density',(#664),#1064);
#669=DESCRIPTIVE_REPRESENTATION_ITEM('Steel','Steel');
#670=PROPERTY_DEFINITION('material property','material name',#1079);
#671=PROPERTY_DEFINITION('material property','density of part',#1079);
#672=AXIS2_PLACEMENT_3D('',#879,#713,#714);
#673=AXIS2_PLACEMENT_3D('',#880,#715,#716);
#674=AXIS2_PLACEMENT_3D('',#881,#717,#718);
#675=AXIS2_PLACEMENT_3D('',#890,#723,#724);
#676=AXIS2_PLACEMENT_3D('',#896,#728,#729);
#677=AXIS2_PLACEMENT_3D('',#902,#733,#734);
#678=AXIS2_PLACEMENT_3D('',#905,#737,#738);
#679=AXIS2_PLACEMENT_3D('',#906,#739,#740);
#680=AXIS2_PLACEMENT_3D('',#907,#741,#742);
#681=AXIS2_PLACEMENT_3D('',#920,#749,#750);
#682=AXIS2_PLACEMENT_3D('',#926,#754,#755);
#683=AXIS2_PLACEMENT_3D('',#930,#758,#759);
#684=AXIS2_PLACEMENT_3D('',#934,#762,#763);
#685=AXIS2_PLACEMENT_3D('',#938,#766,#767);
#686=AXIS2_PLACEMENT_3D('',#942,#770,#771);
#687=AXIS2_PLACEMENT_3D('',#944,#773,#774);
#688=AXIS2_PLACEMENT_3D('',#945,#775,#776);
#689=AXIS2_PLACEMENT_3D('',#958,#783,#784);
#690=AXIS2_PLACEMENT_3D('',#964,#788,#789);
#691=AXIS2_PLACEMENT_3D('',#968,#792,#793);
#692=AXIS2_PLACEMENT_3D('',#972,#796,#797);
#693=AXIS2_PLACEMENT_3D('',#976,#800,#801);
#694=AXIS2_PLACEMENT_3D('',#980,#804,#805);
#695=AXIS2_PLACEMENT_3D('',#982,#807,#808);
#696=AXIS2_PLACEMENT_3D('',#983,#809,#810);
#697=AXIS2_PLACEMENT_3D('',#996,#817,#818);
#698=AXIS2_PLACEMENT_3D('',#1002,#822,#823);
#699=AXIS2_PLACEMENT_3D('',#1006,#826,#827);
#700=AXIS2_PLACEMENT_3D('',#1010,#830,#831);
#701=AXIS2_PLACEMENT_3D('',#1014,#834,#835);
#702=AXIS2_PLACEMENT_3D('',#1018,#838,#839);
#703=AXIS2_PLACEMENT_3D('',#1020,#841,#842);
#704=AXIS2_PLACEMENT_3D('',#1021,#843,#844);
#705=AXIS2_PLACEMENT_3D('',#1034,#851,#852);
#706=AXIS2_PLACEMENT_3D('',#1040,#856,#857);
#707=AXIS2_PLACEMENT_3D('',#1044,#860,#861);
#708=AXIS2_PLACEMENT_3D('',#1048,#864,#865);
#709=AXIS2_PLACEMENT_3D('',#1052,#868,#869);
#710=AXIS2_PLACEMENT_3D('',#1056,#872,#873);
#711=AXIS2_PLACEMENT_3D('',#1058,#875,#876);
#712=AXIS2_PLACEMENT_3D('',#1059,#877,#878);
#713=DIRECTION('axis',(0.,0.,1.));
#714=DIRECTION('refdir',(1.,0.,0.));
#715=DIRECTION('axis',(0.,0.,1.));
#716=DIRECTION('refdir',(1.,0.,0.));
#717=DIRECTION('center_axis',(1.,0.,1.61203857568123E-29));
#718=DIRECTION('ref_axis',(1.61203857568123E-29,-2.1245374501347E-17,-1.));
#719=DIRECTION('',(0.,1.,0.));
#720=DIRECTION('',(1.61203857568123E-29,-2.1245374501347E-17,-1.));
#721=DIRECTION('',(0.,-1.,0.));
#722=DIRECTION('',(-1.61203857568123E-29,0.,1.));
#723=DIRECTION('center_axis',(-1.61202420313165E-29,0.,1.));
#724=DIRECTION('ref_axis',(1.,6.76502528689364E-18,1.61202420313165E-29));
#725=DIRECTION('',(1.,6.76502528689364E-18,1.61202420313165E-29));
#726=DIRECTION('',(0.,-1.,0.));
#727=DIRECTION('',(-1.,0.,-1.61202420313165E-29));
#728=DIRECTION('center_axis',(-1.,0.,-1.61203857568123E-29));
#729=DIRECTION('ref_axis',(-1.61203857568123E-29,2.1245374501347E-17,1.));
#730=DIRECTION('',(-1.61203857568123E-29,2.1245374501347E-17,1.));
#731=DIRECTION('',(0.,-1.,0.));
#732=DIRECTION('',(1.61203857568123E-29,0.,-1.));
#733=DIRECTION('center_axis',(1.61202420313165E-29,0.,-1.));
#734=DIRECTION('ref_axis',(-1.,-6.76502528689364E-18,-1.61202420313165E-29));
#735=DIRECTION('',(-1.,-6.76502528689364E-18,-1.61202420313165E-29));
#736=DIRECTION('',(1.,0.,1.61202420313165E-29));
#737=DIRECTION('center_axis',(0.,-1.,0.));
#738=DIRECTION('ref_axis',(0.,0.,-1.));
#739=DIRECTION('center_axis',(0.,1.,0.));
#740=DIRECTION('ref_axis',(0.,0.,1.));
#741=DIRECTION('center_axis',(0.,-1.,0.));
#742=DIRECTION('ref_axis',(0.,0.,-1.));
#743=DIRECTION('',(1.,0.,1.61178833209227E-29));
#744=DIRECTION('',(-1.61203890035069E-29,0.,1.));
#745=DIRECTION('',(-1.,0.,-1.61199036160954E-29));
#746=DIRECTION('',(1.61203891811376E-29,0.,-1.));
#747=DIRECTION('',(1.,0.,1.61202420313165E-29));
#748=DIRECTION('',(1.61203820014688E-29,0.,-1.));
#749=DIRECTION('center_axis',(-1.,0.,-1.61203820014688E-29));
#750=DIRECTION('ref_axis',(-1.61203820014688E-29,2.06902629890344E-17,1.));
#751=DIRECTION('',(0.,1.,0.));
#752=DIRECTION('',(-1.61203820014688E-29,2.06902629890344E-17,1.));
#753=DIRECTION('',(0.,-1.,0.));
#754=DIRECTION('center_axis',(1.61178833209227E-29,0.,-1.));
#755=DIRECTION('ref_axis',(-1.,-1.17787327749409E-16,-1.61178833209227E-29));
#756=DIRECTION('',(-1.,-1.17787327749409E-16,-1.61178833209227E-29));
#757=DIRECTION('',(0.,-1.,0.));
#758=DIRECTION('center_axis',(1.,0.,1.61203890035069E-29));
#759=DIRECTION('ref_axis',(1.61203890035069E-29,-2.17252979990235E-17,-1.));
#760=DIRECTION('',(1.61203890035069E-29,-2.17252979990235E-17,-1.));
#761=DIRECTION('',(0.,-1.,0.));
#762=DIRECTION('center_axis',(-1.61199036160954E-29,0.,1.));
#763=DIRECTION('ref_axis',(1.,2.26939147097782E-17,1.61199036160954E-29));
#764=DIRECTION('',(1.,2.26939147097782E-17,1.61199036160954E-29));
#765=DIRECTION('',(0.,-1.,0.));
#766=DIRECTION('center_axis',(-1.,0.,-1.61203891811376E-29));
#767=DIRECTION('ref_axis',(-1.61203891811376E-29,2.17515552116624E-17,1.));
#768=DIRECTION('',(-1.61203891811376E-29,2.17515552116624E-17,1.));
#769=DIRECTION('',(0.,-1.,0.));
#770=DIRECTION('center_axis',(1.61202420313165E-29,0.,-1.));
#771=DIRECTION('ref_axis',(-1.,-6.76502528689364E-18,-1.61202420313165E-29));
#772=DIRECTION('',(-1.,-6.76502528689364E-18,-1.61202420313165E-29));
#773=DIRECTION('center_axis',(0.,1.,0.));
#774=DIRECTION('ref_axis',(0.,0.,1.));
#775=DIRECTION('center_axis',(0.,1.,0.));
#776=DIRECTION('ref_axis',(0.,0.,1.));
#777=DIRECTION('',(-1.,-6.76502528653597E-18,1.68354603392065E-11));
#778=DIRECTION('',(5.44092468819216E-12,2.12453745013838E-17,1.));
#779=DIRECTION('',(1.,6.76502528774346E-18,4.00001544866549E-11));
#780=DIRECTION('',(-8.89007386227254E-12,-2.12453745014071E-17,-1.));
#781=DIRECTION('',(1.,6.76502528731093E-18,1.96411775733686E-11));
#782=DIRECTION('',(3.80877362698567E-11,-2.12453745010894E-17,-1.));
#783=DIRECTION('center_axis',(-1.68354603392065E-11,0.,-1.));
#784=DIRECTION('ref_axis',(-1.,-6.76502528653597E-18,1.68354603392065E-11));
#785=DIRECTION('',(0.,-1.,0.));
#786=DIRECTION('',(0.,1.,0.));
#787=DIRECTION('',(1.,0.,-1.68354603392065E-11));
#788=DIRECTION('center_axis',(-1.,0.,5.44092468819216E-12));
#789=DIRECTION('ref_axis',(5.44092468819216E-12,2.12453745013838E-17,1.));
#790=DIRECTION('',(0.,-1.,0.));
#791=DIRECTION('',(-5.44092468819216E-12,0.,-1.));
#792=DIRECTION('center_axis',(-4.00001544866549E-11,0.,1.));
#793=DIRECTION('ref_axis',(1.,6.76502528774346E-18,4.00001544866549E-11));
#794=DIRECTION('',(0.,-1.,0.));
#795=DIRECTION('',(-1.,0.,-4.00001544866549E-11));
#796=DIRECTION('center_axis',(1.,0.,-8.89007386227254E-12));
#797=DIRECTION('ref_axis',(-8.89007386227254E-12,-2.12453745014071E-17,
-1.));
#798=DIRECTION('',(0.,-1.,0.));
#799=DIRECTION('',(8.89007386227254E-12,0.,1.));
#800=DIRECTION('center_axis',(-1.96411775733686E-11,0.,1.));
#801=DIRECTION('ref_axis',(1.,6.76502528731093E-18,1.96411775733686E-11));
#802=DIRECTION('',(0.,-1.,0.));
#803=DIRECTION('',(-1.,0.,-1.96411775733686E-11));
#804=DIRECTION('center_axis',(1.,0.,3.80877362698567E-11));
#805=DIRECTION('ref_axis',(3.80877362698567E-11,-2.12453745010894E-17,-1.));
#806=DIRECTION('',(-3.80877362698567E-11,0.,1.));
#807=DIRECTION('center_axis',(0.,-1.,0.));
#808=DIRECTION('ref_axis',(0.,0.,-1.));
#809=DIRECTION('center_axis',(0.,-1.,0.));
#810=DIRECTION('ref_axis',(0.,0.,-1.));
#811=DIRECTION('',(1.,0.,1.61178833209227E-29));
#812=DIRECTION('',(-1.61202022787392E-29,0.,1.));
#813=DIRECTION('',(-1.,0.,-1.61202375413856E-29));
#814=DIRECTION('',(1.61203857568123E-29,0.,-1.));
#815=DIRECTION('',(1.,0.,1.61194479321506E-29));
#816=DIRECTION('',(1.61206311059156E-29,0.,-1.));
#817=DIRECTION('center_axis',(-1.,0.,-1.61206311059156E-29));
#818=DIRECTION('ref_axis',(-1.61206311059156E-29,5.75126599724354E-17,1.));
#819=DIRECTION('',(0.,1.,0.));
#820=DIRECTION('',(-1.61206311059156E-29,5.75126599724354E-17,1.));
#821=DIRECTION('',(0.,-1.,0.));
#822=DIRECTION('center_axis',(1.61178833209227E-29,0.,-1.));
#823=DIRECTION('ref_axis',(-1.,-1.17787327749409E-16,-1.61178833209227E-29));
#824=DIRECTION('',(-1.,-1.17787327749409E-16,-1.61178833209227E-29));
#825=DIRECTION('',(0.,-1.,0.));
#826=DIRECTION('center_axis',(1.,0.,1.61202022787392E-29));
#827=DIRECTION('ref_axis',(1.61202022787392E-29,5.87619050377267E-18,-1.));
#828=DIRECTION('',(1.61202022787392E-29,5.87619050377267E-18,-1.));
#829=DIRECTION('',(0.,-1.,0.));
#830=DIRECTION('center_axis',(-1.61202375413856E-29,0.,1.));
#831=DIRECTION('ref_axis',(1.,6.9763621570634E-18,1.61202375413856E-29));
#832=DIRECTION('',(1.,6.9763621570634E-18,1.61202375413856E-29));
#833=DIRECTION('',(0.,-1.,0.));
#834=DIRECTION('center_axis',(-1.,0.,-1.61203857568123E-29));
#835=DIRECTION('ref_axis',(-1.61203857568123E-29,2.1245374501347E-17,1.));
#836=DIRECTION('',(-1.61203857568123E-29,2.1245374501347E-17,1.));
#837=DIRECTION('',(0.,-1.,0.));
#838=DIRECTION('center_axis',(1.61194479321506E-29,0.,-1.));
#839=DIRECTION('ref_axis',(-1.,-4.41425337826073E-17,-1.61194479321506E-29));
#840=DIRECTION('',(-1.,-4.41425337826073E-17,-1.61194479321506E-29));
#841=DIRECTION('center_axis',(0.,1.,0.));
#842=DIRECTION('ref_axis',(0.,0.,1.));
#843=DIRECTION('center_axis',(0.,1.,0.));
#844=DIRECTION('ref_axis',(0.,0.,1.));
#845=DIRECTION('',(-1.,-6.76502528689364E-18,-1.61202420313165E-29));
#846=DIRECTION('',(-1.33350749557957E-11,2.12453745012568E-17,1.));
#847=DIRECTION('',(1.,6.76502528689364E-18,1.61202420313165E-29));
#848=DIRECTION('',(1.7779852068791E-11,-2.12453745012267E-17,-1.));
#849=DIRECTION('',(1.,6.76502528689364E-18,1.61202420313165E-29));
#850=DIRECTION('',(1.61203857568123E-29,-2.1245374501347E-17,-1.));
#851=DIRECTION('center_axis',(1.61202420313165E-29,0.,-1.));
#852=DIRECTION('ref_axis',(-1.,-6.76502528689364E-18,-1.61202420313165E-29));
#853=DIRECTION('',(0.,-1.,0.));
#854=DIRECTION('',(0.,1.,0.));
#855=DIRECTION('',(1.,0.,1.61202420313165E-29));
#856=DIRECTION('center_axis',(-1.,0.,-1.33350749557957E-11));
#857=DIRECTION('ref_axis',(-1.33350749557957E-11,2.12453745012568E-17,1.));
#858=DIRECTION('',(0.,-1.,0.));
#859=DIRECTION('',(1.33350749557957E-11,0.,-1.));
#860=DIRECTION('center_axis',(-1.61202420313165E-29,0.,1.));
#861=DIRECTION('ref_axis',(1.,6.76502528689364E-18,1.61202420313165E-29));
#862=DIRECTION('',(0.,-1.,0.));
#863=DIRECTION('',(-1.,0.,-1.61202420313165E-29));
#864=DIRECTION('center_axis',(1.,0.,1.7779852068791E-11));
#865=DIRECTION('ref_axis',(1.7779852068791E-11,-2.12453745012267E-17,-1.));
#866=DIRECTION('',(0.,-1.,0.));
#867=DIRECTION('',(-1.7779852068791E-11,0.,1.));
#868=DIRECTION('center_axis',(-1.61202420313165E-29,0.,1.));
#869=DIRECTION('ref_axis',(1.,6.76502528689364E-18,1.61202420313165E-29));
#870=DIRECTION('',(0.,-1.,0.));
#871=DIRECTION('',(-1.,0.,-1.61202420313165E-29));
#872=DIRECTION('center_axis',(1.,0.,1.61203857568123E-29));
#873=DIRECTION('ref_axis',(1.61203857568123E-29,-2.1245374501347E-17,-1.));
#874=DIRECTION('',(-1.61203857568123E-29,0.,1.));
#875=DIRECTION('center_axis',(0.,-1.,0.));
#876=DIRECTION('ref_axis',(0.,0.,-1.));
#877=DIRECTION('',(-2.49800180540658E-15,-1.,-1.38777878078E-17));
#878=DIRECTION('',(1.,-2.49800180540658E-15,1.3991881045961E-31));
#879=CARTESIAN_POINT('',(0.,0.,0.));
#880=CARTESIAN_POINT('',(0.,0.,0.));
#881=CARTESIAN_POINT('Origin',(-33.4488961596903,-3.02188262400072E-14,
89.7825277797466));
#882=CARTESIAN_POINT('',(-33.4488961596903,-1.5,75.0825309797466));
#883=CARTESIAN_POINT('',(-33.4488961596903,1.99999999999997,75.0825309797466));
#884=CARTESIAN_POINT('',(-33.4488961596903,-3.05311331771918E-14,75.0825309797466));
#885=CARTESIAN_POINT('',(-33.4488961596903,1.99999999999997,89.7825277797466));
#886=CARTESIAN_POINT('',(-33.4488961596903,1.99999999999997,75.0825309797466));
#887=CARTESIAN_POINT('',(-33.4488961596903,-1.5,89.7825277797466));
#888=CARTESIAN_POINT('',(-33.4488961596903,-3.05311331771918E-14,89.7825277797466));
#889=CARTESIAN_POINT('',(-33.4488961596903,-1.5,86.0907849260281));
#890=CARTESIAN_POINT('Origin',(-48.1488961596903,-3.06305790489091E-14,
89.7825277797466));
#891=CARTESIAN_POINT('',(-48.1488961596903,1.99999999999997,89.7825277797466));
#892=CARTESIAN_POINT('',(-33.4488961596903,1.99999999999997,89.7825277797466));
#893=CARTESIAN_POINT('',(-48.1488961596903,-1.5,89.7825277797466));
#894=CARTESIAN_POINT('',(-48.1488961596903,-3.05311331771918E-14,89.7825277797466));
#895=CARTESIAN_POINT('',(-44.4663400824236,-1.5,89.7825277797466));
#896=CARTESIAN_POINT('Origin',(-48.1488961596903,-3.08434401143764E-14,
75.0825309797466));
#897=CARTESIAN_POINT('',(-48.1488961596903,1.99999999999997,75.0825309797466));
#898=CARTESIAN_POINT('',(-48.1488961596903,1.99999999999997,89.7825277797466));
#899=CARTESIAN_POINT('',(-48.1488961596903,-1.5,75.0825309797466));
#900=CARTESIAN_POINT('',(-48.1488961596903,-3.05311331771918E-14,75.0825309797466));
#901=CARTESIAN_POINT('',(-48.1488961596903,-1.5,78.7407865260281));
#902=CARTESIAN_POINT('Origin',(-33.4488961596903,-3.04316873054745E-14,
75.0825309797466));
#903=CARTESIAN_POINT('',(-48.1488961596903,1.99999999999997,75.0825309797466));
#904=CARTESIAN_POINT('',(-37.1163400824236,-1.5,75.0825309797466));
#905=CARTESIAN_POINT('Origin',(-40.7837840051568,-1.5,82.3990420723096));
#906=CARTESIAN_POINT('Origin',(-40.7837840053,2.,82.3990404724));
#907=CARTESIAN_POINT('Origin',(-40.7837840051568,-1.5,82.3990420723096));
#908=CARTESIAN_POINT('',(-18.1488961596903,-1.5,75.0825277797466));
#909=CARTESIAN_POINT('',(-13.4488961596903,-1.5,75.0825277797466));
#910=CARTESIAN_POINT('',(-27.1163400824235,-1.5,75.0825277797466));
#911=CARTESIAN_POINT('',(-13.4488961596903,-1.5,109.782527779747));
#912=CARTESIAN_POINT('',(-13.4488961596903,-1.5,96.0907849260283));
#913=CARTESIAN_POINT('',(-48.1488961596903,-1.5,109.782527779747));
#914=CARTESIAN_POINT('',(-44.4663400824236,-1.5,109.782527779747));
#915=CARTESIAN_POINT('',(-48.1488961596903,-1.5,105.082527779747));
#916=CARTESIAN_POINT('',(-48.1488961596903,-1.5,93.7407849260283));
#917=CARTESIAN_POINT('',(-18.1488961596903,-1.5,105.082527779747));
#918=CARTESIAN_POINT('',(-29.4663400824235,-1.5,105.082527779747));
#919=CARTESIAN_POINT('',(-18.1488961596903,-1.5,78.7407849260281));
#920=CARTESIAN_POINT('Origin',(-18.1488961596903,-3.05967295545503E-14,
75.0825277797466));
#921=CARTESIAN_POINT('',(-18.1488961596903,1.99999999999997,105.082527779747));
#922=CARTESIAN_POINT('',(-18.1488961596903,-2.99760216648792E-14,105.082527779747));
#923=CARTESIAN_POINT('',(-18.1488961596903,1.99999999999997,75.0825277797466));
#924=CARTESIAN_POINT('',(-18.1488961596903,1.99999999999997,105.082527779747));
#925=CARTESIAN_POINT('',(-18.1488961596903,-3.10862446895044E-14,75.0825277797466));
#926=CARTESIAN_POINT('Origin',(-13.4488961596903,-3.05326442490822E-14,
75.0825277797466));
#927=CARTESIAN_POINT('',(-13.4488961596903,1.99999999999997,75.0825277797466));
#928=CARTESIAN_POINT('',(-18.1488961596903,1.99999999999997,75.0825277797466));
#929=CARTESIAN_POINT('',(-13.4488961596903,-3.05311331771918E-14,75.0825277797466));
#930=CARTESIAN_POINT('Origin',(-13.4488961596903,-2.97772653366257E-14,
109.782527779747));
#931=CARTESIAN_POINT('',(-13.4488961596903,1.99999999999997,109.782527779747));
#932=CARTESIAN_POINT('',(-13.4488961596903,1.99999999999997,75.0825277797466));
#933=CARTESIAN_POINT('',(-13.4488961596903,-2.94209101525666E-14,109.782527779747));
#934=CARTESIAN_POINT('Origin',(-48.1488961596903,-3.0208388992996E-14,109.782527779747));
#935=CARTESIAN_POINT('',(-48.1488961596903,1.99999999999997,109.782527779747));
#936=CARTESIAN_POINT('',(-13.4488961596903,1.99999999999997,109.782527779747));
#937=CARTESIAN_POINT('',(-48.1488961596903,-2.99760216648792E-14,109.782527779747));
#938=CARTESIAN_POINT('Origin',(-48.1488961596903,-3.0078253974374E-14,105.082527779747));
#939=CARTESIAN_POINT('',(-48.1488961596903,1.99999999999997,105.082527779747));
#940=CARTESIAN_POINT('',(-48.1488961596903,1.99999999999997,109.782527779747));
#941=CARTESIAN_POINT('',(-48.1488961596903,-2.99760216648792E-14,105.082527779747));
#942=CARTESIAN_POINT('Origin',(-18.1488961596903,-2.97730709062724E-14,
105.082527779747));
#943=CARTESIAN_POINT('',(-48.1488961596903,1.99999999999997,105.082527779747));
#944=CARTESIAN_POINT('Origin',(-30.7837840049895,2.,92.3990420723729));
#945=CARTESIAN_POINT('Origin',(-50.7837840053,2.,72.3990420724));
#946=CARTESIAN_POINT('',(-33.4488961599627,1.99999999999997,55.0825277798161));
#947=CARTESIAN_POINT('',(-68.1488961601466,1.99999999999997,55.0825277804003));
#948=CARTESIAN_POINT('',(-68.1488961601466,1.99999999999997,55.0825277804003));
#949=CARTESIAN_POINT('',(-68.1488961599578,1.99999999999997,89.7825277795526));
#950=CARTESIAN_POINT('',(-68.1488961599578,1.99999999999997,89.7825277795526));
#951=CARTESIAN_POINT('',(-63.4488961596916,1.99999999999997,89.7825277797406));
#952=CARTESIAN_POINT('',(-63.4488961596916,1.99999999999997,89.7825277797406));
#953=CARTESIAN_POINT('',(-63.4488961599583,1.99999999999997,59.7825277798106));
#954=CARTESIAN_POINT('',(-63.4488961599583,1.99999999999997,59.7825277798106));
#955=CARTESIAN_POINT('',(-33.4488961601417,1.99999999999997,59.7825277803998));
#956=CARTESIAN_POINT('',(-33.4488961601417,1.99999999999997,59.7825277803998));
#957=CARTESIAN_POINT('',(-33.4488961599627,1.99999999999997,55.0825277798161));
#958=CARTESIAN_POINT('Origin',(-33.4488961599627,-3.08514983120603E-14,
55.0825277798161));
#959=CARTESIAN_POINT('',(-68.1488961601466,-1.5,55.0825277804003));
#960=CARTESIAN_POINT('',(-68.1488961601466,-3.10862446895044E-14,55.0825277804003));
#961=CARTESIAN_POINT('',(-33.4488961599627,-1.5,55.0825277798161));
#962=CARTESIAN_POINT('',(-33.4488961599627,-3.10862446895044E-14,55.0825277798161));
#963=CARTESIAN_POINT('',(-37.1163400827897,-1.5,55.0825277798778));
#964=CARTESIAN_POINT('Origin',(-68.1488961601466,-3.12683476723718E-14,
55.0825277804002));
#965=CARTESIAN_POINT('',(-68.1488961599578,-1.5,89.7825277795526));
#966=CARTESIAN_POINT('',(-68.1488961599578,-3.05311331771918E-14,89.7825277795526));
#967=CARTESIAN_POINT('',(-68.1488961600723,-1.5,68.7407849264294));
#968=CARTESIAN_POINT('Origin',(-68.1488961599578,-3.0562928796046E-14,89.7825277795526));
#969=CARTESIAN_POINT('',(-63.4488961596916,-1.5,89.7825277797406));
#970=CARTESIAN_POINT('',(-63.4488961596916,-3.05311331771918E-14,89.7825277797406));
#971=CARTESIAN_POINT('',(-54.466340082705,-1.5,89.7825277800999));
#972=CARTESIAN_POINT('Origin',(-63.4488961596916,-2.98937719421511E-14,
89.7825277797406));
#973=CARTESIAN_POINT('',(-63.4488961599583,-1.5,59.7825277798106));
#974=CARTESIAN_POINT('',(-63.4488961599583,-3.05311331771918E-14,59.7825277798106));
#975=CARTESIAN_POINT('',(-63.4488961597244,-1.5,86.0907849261258));
#976=CARTESIAN_POINT('Origin',(-63.4488961599583,-3.07340839358099E-14,
59.7825277798106));
#977=CARTESIAN_POINT('',(-33.4488961601417,-1.5,59.7825277803998));
#978=CARTESIAN_POINT('',(-33.4488961601417,-3.05311331771918E-14,59.7825277803998));
#979=CARTESIAN_POINT('',(-52.1163400823354,-1.5,59.7825277800332));
#980=CARTESIAN_POINT('Origin',(-33.4488961601417,-3.09863914293369E-14,
59.7825277803998));
#981=CARTESIAN_POINT('',(-33.4488961605724,-1.5,71.0907849264944));
#982=CARTESIAN_POINT('Origin',(-40.7837840051568,-1.5,82.3990420723096));
#983=CARTESIAN_POINT('Origin',(-40.7837840051568,-1.5,82.3990420723096));
#984=CARTESIAN_POINT('',(-28.1488961596903,-1.5,80.0825277797466));
#985=CARTESIAN_POINT('',(-23.4488961596903,-1.5,80.0825277797466));
#986=CARTESIAN_POINT('',(-32.1163400824236,-1.5,80.0825277797466));
#987=CARTESIAN_POINT('',(-23.4488961596903,-1.5,99.7825277797466));
#988=CARTESIAN_POINT('',(-23.4488961596903,-1.5,91.0907849260281));
#989=CARTESIAN_POINT('',(-43.1488961596903,-1.5,99.7825277797466));
#990=CARTESIAN_POINT('',(-41.9663400824236,-1.5,99.7825277797466));
#991=CARTESIAN_POINT('',(-43.1488961596903,-1.5,95.0825277797466));
#992=CARTESIAN_POINT('',(-43.1488961596903,-1.5,88.7407849260281));
#993=CARTESIAN_POINT('',(-28.1488961596903,-1.5,95.0825277797466));
#994=CARTESIAN_POINT('',(-34.4663400824235,-1.5,95.0825277797466));
#995=CARTESIAN_POINT('',(-28.1488961596903,-1.5,81.2407849260281));
#996=CARTESIAN_POINT('Origin',(-28.1488961596903,-3.08387115644658E-14,
80.0825277797466));
#997=CARTESIAN_POINT('',(-28.1488961596903,1.99999999999997,95.0825277797466));
#998=CARTESIAN_POINT('',(-28.1488961596903,-2.99760216648792E-14,95.0825277797466));
#999=CARTESIAN_POINT('',(-28.1488961596903,1.99999999999997,80.0825277797466));
#1000=CARTESIAN_POINT('',(-28.1488961596903,1.99999999999997,95.0825277797466));
#1001=CARTESIAN_POINT('',(-28.1488961596903,-3.10862446895044E-14,80.0825277797466));
#1002=CARTESIAN_POINT('Origin',(-23.4488961596903,-3.05326442490822E-14,
80.0825277797466));
#1003=CARTESIAN_POINT('',(-23.4488961596903,1.99999999999997,80.0825277797466));
#1004=CARTESIAN_POINT('',(-28.1488961596903,1.99999999999997,80.0825277797466));
#1005=CARTESIAN_POINT('',(-23.4488961596903,-3.05311331771918E-14,80.0825277797466));
#1006=CARTESIAN_POINT('Origin',(-23.4488961596903,-3.06468941301161E-14,
99.7825277797466));
#1007=CARTESIAN_POINT('',(-23.4488961596903,1.99999999999997,99.7825277797466));
#1008=CARTESIAN_POINT('',(-23.4488961596903,1.99999999999997,80.0825277797466));
#1009=CARTESIAN_POINT('',(-23.4488961596903,-3.05311331771918E-14,99.7825277797466));
#1010=CARTESIAN_POINT('Origin',(-43.1488961596903,-3.0668567511686E-14,
99.7825277797466));
#1011=CARTESIAN_POINT('',(-43.1488961596903,1.99999999999997,99.7825277797466));
#1012=CARTESIAN_POINT('',(-23.4488961596903,1.99999999999997,99.7825277797466));
#1013=CARTESIAN_POINT('',(-43.1488961596903,-3.05311331771918E-14,99.7825277797466));
#1014=CARTESIAN_POINT('Origin',(-43.1488961596903,-3.06309864373481E-14,
95.0825277797466));
#1015=CARTESIAN_POINT('',(-43.1488961596903,1.99999999999997,95.0825277797466));
#1016=CARTESIAN_POINT('',(-43.1488961596903,1.99999999999997,99.7825277797466));
#1017=CARTESIAN_POINT('',(-43.1488961596903,-3.10862446895044E-14,95.0825277797466));
#1018=CARTESIAN_POINT('Origin',(-28.1488961596903,-3.04241066827653E-14,
95.0825277797466));
#1019=CARTESIAN_POINT('',(-43.1488961596903,1.99999999999997,95.0825277797466));
#1020=CARTESIAN_POINT('Origin',(-33.28378383382,2.,89.8990422427167));
#1021=CARTESIAN_POINT('Origin',(-48.2837840053,2.,74.8990420724));
#1022=CARTESIAN_POINT('',(-38.4488965023903,1.99999999999997,65.0825277797466));
#1023=CARTESIAN_POINT('',(-58.1488961596923,1.99999999999997,65.0825277797466));
#1024=CARTESIAN_POINT('',(-58.1488961596923,1.99999999999997,65.0825277797466));
#1025=CARTESIAN_POINT('',(-58.148896159955,1.99999999999997,84.7825274391133));
#1026=CARTESIAN_POINT('',(-58.148896159955,1.99999999999997,84.7825274391133));
#1027=CARTESIAN_POINT('',(-53.4488961599543,1.99999999999997,84.7825274391133));
#1028=CARTESIAN_POINT('',(-53.4488961599543,1.99999999999997,84.7825274391133));
#1029=CARTESIAN_POINT('',(-53.4488961596876,1.99999999999997,69.7825277797465));
#1030=CARTESIAN_POINT('',(-53.4488961596876,1.99999999999997,69.7825277797465));
#1031=CARTESIAN_POINT('',(-38.4488965023903,1.99999999999997,69.7825277797465));
#1032=CARTESIAN_POINT('',(-38.4488965023903,1.99999999999997,69.7825277797465));
#1033=CARTESIAN_POINT('',(-38.4488965023903,1.99999999999997,65.0825277797466));
#1034=CARTESIAN_POINT('Origin',(-38.4488965023903,-3.03978621813584E-14,
65.0825277797466));
#1035=CARTESIAN_POINT('',(-58.1488961596923,-1.5,65.0825277797466));
#1036=CARTESIAN_POINT('',(-58.1488961596923,-3.05311331771918E-14,65.0825277797466));
#1037=CARTESIAN_POINT('',(-38.4488965023903,-1.5,65.0825277797466));
#1038=CARTESIAN_POINT('',(-38.4488965023903,-3.05311331771918E-14,65.0825277797466));
#1039=CARTESIAN_POINT('',(-39.6163402537736,-1.5,65.0825277797466));
#1040=CARTESIAN_POINT('Origin',(-58.1488961596923,-3.09496670476297E-14,
65.0825277797466));
#1041=CARTESIAN_POINT('',(-58.148896159955,-1.5,84.7825274391133));
#1042=CARTESIAN_POINT('',(-58.148896159955,-3.05311331771918E-14,84.7825274391133));
#1043=CARTESIAN_POINT('',(-58.1488961598077,-1.5,73.7407849259123));
#1044=CARTESIAN_POINT('Origin',(-58.148896159955,-3.05629287960402E-14,
84.7825274391133));
#1045=CARTESIAN_POINT('',(-53.4488961599543,-1.5,84.7825274391133));
#1046=CARTESIAN_POINT('',(-53.4488961599543,-3.05311331771918E-14,84.7825274391133));
#1047=CARTESIAN_POINT('',(-49.4663400825559,-1.5,84.7825274391132));
#1048=CARTESIAN_POINT('Origin',(-53.4488961599543,-3.02124525669103E-14,
84.7825274391133));
#1049=CARTESIAN_POINT('',(-53.4488961596876,-1.5,69.7825277797465));
#1050=CARTESIAN_POINT('',(-53.4488961596876,-3.05311331771918E-14,69.7825277797465));
#1051=CARTESIAN_POINT('',(-53.4488961599331,-1.5,83.5907847555989));
#1052=CARTESIAN_POINT('Origin',(-53.4488961596876,-3.06326085541768E-14,
69.7825277797465));
#1053=CARTESIAN_POINT('',(-38.4488965023903,-1.5,69.7825277797465));
#1054=CARTESIAN_POINT('',(-38.4488965023903,-3.05311331771918E-14,69.7825277797465));
#1055=CARTESIAN_POINT('',(-47.1163400824222,-1.5,69.7825277797465));
#1056=CARTESIAN_POINT('Origin',(-38.4488965023903,-3.04312799170355E-14,
69.7825277797465));
#1057=CARTESIAN_POINT('',(-38.4488965023903,-1.5,76.090784926028));
#1058=CARTESIAN_POINT('Origin',(-40.7837840051568,-1.5,82.3990420723096));
#1059=CARTESIAN_POINT('',(81.5826801649899,164.831569852146,46.2071457035999));
#1060=UNCERTAINTY_MEASURE_WITH_UNIT(LENGTH_MEASURE(0.01),#1066,
'DISTANCE_ACCURACY_VALUE',
'Maximum model space distance between geometric entities at asserted c
onnectivities');
#1061=UNCERTAINTY_MEASURE_WITH_UNIT(LENGTH_MEASURE(0.01),#1066,
'DISTANCE_ACCURACY_VALUE',
'Maximum model space distance between geometric entities at asserted c
onnectivities');
#1062=UNCERTAINTY_MEASURE_WITH_UNIT(LENGTH_MEASURE(0.01),#1066,
'DISTANCE_ACCURACY_VALUE',
'Maximum model space distance between geometric entities at asserted c
onnectivities');
#1063=(
GEOMETRIC_REPRESENTATION_CONTEXT(3)
GLOBAL_UNCERTAINTY_ASSIGNED_CONTEXT((#1060))
GLOBAL_UNIT_ASSIGNED_CONTEXT((#1066,#1068,#1069))
REPRESENTATION_CONTEXT('','3D')
);
#1064=(
GEOMETRIC_REPRESENTATION_CONTEXT(3)
GLOBAL_UNCERTAINTY_ASSIGNED_CONTEXT((#1061))
GLOBAL_UNIT_ASSIGNED_CONTEXT((#1066,#1068,#1069))
REPRESENTATION_CONTEXT('','3D')
);
#1065=(
GEOMETRIC_REPRESENTATION_CONTEXT(3)
GLOBAL_UNCERTAINTY_ASSIGNED_CONTEXT((#1062))
GLOBAL_UNIT_ASSIGNED_CONTEXT((#1066,#1068,#1069))
REPRESENTATION_CONTEXT('','3D')
);
#1066=(
LENGTH_UNIT()
NAMED_UNIT(*)
SI_UNIT(.MILLI.,.METRE.)
);
#1067=(
LENGTH_UNIT()
NAMED_UNIT(*)
SI_UNIT($,.METRE.)
);
#1068=(
NAMED_UNIT(*)
PLANE_ANGLE_UNIT()
SI_UNIT($,.RADIAN.)
);
#1069=(
NAMED_UNIT(*)
SI_UNIT($,.STERADIAN.)
SOLID_ANGLE_UNIT()
);
#1070=SHAPE_DEFINITION_REPRESENTATION(#1072,#1075);
#1071=SHAPE_DEFINITION_REPRESENTATION(#1073,#1076);
#1072=PRODUCT_DEFINITION_SHAPE('',$,#1078);
#1073=PRODUCT_DEFINITION_SHAPE('',$,#1079);
#1074=PRODUCT_DEFINITION_SHAPE($,$,#14);
#1075=SHAPE_REPRESENTATION('',(#672,#712),#1063);
#1076=SHAPE_REPRESENTATION('',(#673),#1064);
#1077=PRODUCT_DEFINITION_CONTEXT('part definition',#1085,'design');
#1078=PRODUCT_DEFINITION('2026-01-24-03-01-06-359','(Unsaved)',#1080,#1077);
#1079=PRODUCT_DEFINITION('Latrics_logo_Final v1',
'Latrics_logo_Final v1',#1081,#1077);
#1080=PRODUCT_DEFINITION_FORMATION('',$,#1087);
#1081=PRODUCT_DEFINITION_FORMATION('',$,#1088);
#1082=PRODUCT_RELATED_PRODUCT_CATEGORY('(Unsaved)','(Unsaved)',(#1087));
#1083=PRODUCT_RELATED_PRODUCT_CATEGORY('Latrics_logo_Final v1',
'Latrics_logo_Final v1',(#1088));
#1084=APPLICATION_PROTOCOL_DEFINITION('international standard',
'automotive_design',2009,#1085);
#1085=APPLICATION_CONTEXT(
'Core Data for Automotive Mechanical Design Process');
#1086=PRODUCT_CONTEXT('part definition',#1085,'mechanical');
#1087=PRODUCT('2026-01-24-03-01-06-359','(Unsaved)',
'CATIA V5 STEP Exchange',(#1086));
#1088=PRODUCT('Latrics_logo_Final v1','Latrics_logo_Final v1',$,(#1086));
#1089=PRESENTATION_STYLE_ASSIGNMENT((#1091));
#1090=PRESENTATION_STYLE_ASSIGNMENT((#1092));
#1091=SURFACE_STYLE_USAGE(.BOTH.,#1093);
#1092=SURFACE_STYLE_USAGE(.BOTH.,#1094);
#1093=SURFACE_SIDE_STYLE('',(#1095));
#1094=SURFACE_SIDE_STYLE('',(#1096));
#1095=SURFACE_STYLE_FILL_AREA(#1097);
#1096=SURFACE_STYLE_FILL_AREA(#1098);
#1097=FILL_AREA_STYLE('Steel - Satin',(#1099));
#1098=FILL_AREA_STYLE('Opaque(160,160,160)',(#1100));
#1099=FILL_AREA_STYLE_COLOUR('Steel - Satin',#1101);
#1100=FILL_AREA_STYLE_COLOUR('Opaque(160,160,160)',#1102);
#1101=COLOUR_RGB('Steel - Satin',0.627450980392157,0.627450980392157,0.627450980392157);
#1102=COLOUR_RGB('Opaque(160,160,160)',0.627450980392157,0.627450980392157,
0.627450980392157);
ENDSEC;
END-ISO-10303-21;
